<svg width="28" height="26" viewBox="0 0 28 26" fill="none" xmlns="http://www.w3.org/2000/svg">
    <path d="M9.149 14.5047L19.9091 24.4981C20.0336 24.6138 20.1844 24.6933 20.3468 24.7289C20.5092 24.7645 20.6775 24.755 20.8354 24.7012C20.9932 24.6475 21.1351 24.5515 21.2472 24.4225C21.3593 24.2935 21.4377 24.1359 21.4747 23.9653L25.9758 3.23606C26.0147 3.05683 26.0066 2.8698 25.9522 2.6951C25.8978 2.52041 25.7993 2.36469 25.6673 2.24472C25.5353 2.12474 25.3748 2.04506 25.203 2.01427C25.0312 1.98348 24.8548 2.00273 24.6926 2.06997L2.60728 11.227C2.4148 11.3068 2.25199 11.4502 2.14319 11.6358C2.0344 11.8215 1.98547 12.0393 2.00374 12.2567C2.02202 12.4741 2.1065 12.6794 2.24455 12.8419C2.3826 13.0044 2.5668 13.1153 2.76959 13.1581L9.149 14.5047Z" stroke="black" stroke-width="2.5" stroke-linecap="round" stroke-linejoin="round" />
    <path d="M9.99902 13.9167L24.999 2" stroke="black" stroke-width="2" stroke-linecap="round" stroke-linejoin="round" />
    <path d="M13.999 19.1871L11.2155 23.3545C11.1158 23.5037 10.9889 23.6053 10.8506 23.6465C10.7124 23.6877 10.5691 23.6665 10.4389 23.5858C10.3087 23.505 10.1974 23.3683 10.1191 23.1928C10.0408 23.0174 9.99902 22.8111 9.99902 22.6001V13.917" stroke="black" stroke-width="2" stroke-linecap="round" stroke-linejoin="round" />
</svg>